# xmcd
#
# Track frame offsets:
#	150
#	13113
#	29630
#	43323
#	55869
#	72325
#	83690
#	97255
#	108364
#	125024
#	141997
#	158010
#	172927
#	191853
#	204383
#	219771
#	230247
#	241977
#	255825
#	268812
#
# Disc length: 3875 seconds
#
# Revision: 0
# Processed by: cddbd v1.5.2PL0 Copyright (c) Steve Scherf et al.
# Submitted via: audiograbber 1.83.01
#
DISCID=250f2114
DTITLE=DIE CAMPBELLS - KEEP IT COUNTRY VOL 2
DYEAR=1900
DGENRE=Country
TTITLE0=LET ME BE THERE
TTITLE1=BABY MAKES HER BLUE JEANS TALK
TTITLE2=YOU'RE MY BEST FRIEND
TTITLE3=HAVE I TOLD YOU LATELY THAT I LOVE YOU
TTITLE4=WALK OF LIFE
TTITLE5=LOOKIN OUT MY BACK DOOR
TTITLE6=OLD TIME ROCK 'N ROLL
TTITLE7=TODAY I STARTED LOVING YOU AGAIN
TTITLE8=AS DIE NAG VERDWYN
TTITLE9=RED RIVER ROSIE
TTITLE10=LIVING NEXT DOOR TO ALICE
TTITLE11=IT'S A REAL GOOD FEELING
TTITLE12=ME AND BOBBY MCGEE
TTITLE13=APACHE
TTITLE14=DON'T YOU WISH IT WAS TRUE
TTITLE15=BLUEBERRY HILL
TTITLE16=OH JULIE
TTITLE17=I CAN'T DANCE
TTITLE18=BROKEN HEARTS MEDLEY (SOME BROKEN HEARTS NEVER MEND, HEAVEN IS MY WOMA
TTITLE18=NS LOVE)
TTITLE19=BELLAMY BROTHERS MEDLEY (LET YOUR LOVE FLOW, IF I SAID YOU HAD A BEAUT
TTITLE19=IFUL BODY, LONELY PLANET)
EXTD=
EXTT0=
EXTT1=
EXTT2=
EXTT3=
EXTT4=
EXTT5=
EXTT6=
EXTT7=
EXTT8=
EXTT9=
EXTT10=
EXTT11=
EXTT12=
EXTT13=
EXTT14=
EXTT15=
EXTT16=
EXTT17=
EXTT18=
EXTT19=
PLAYORDER=
